<svg width="63" height="63" viewBox="0 0 63 63" fill="none" xmlns="http://www.w3.org/2000/svg">
<path d="M36.0412 55.125C35.5797 55.9206 34.9173 56.581 34.1203 57.04C33.3234 57.4991 32.4197 57.7407 31.5 57.7407C30.5803 57.7407 29.6766 57.4991 28.8797 57.04C28.0827 56.581 27.4203 55.9206 26.9588 55.125M47.25 21C47.25 16.8228 45.5906 12.8168 42.6369 9.86307C39.6832 6.90937 35.6772 5.25 31.5 5.25C27.3228 5.25 23.3168 6.90937 20.3631 9.86307C17.4094 12.8168 15.75 16.8228 15.75 21C15.75 39.375 7.875 44.625 7.875 44.625H55.125C55.125 44.625 47.25 39.375 47.25 21Z" stroke="#1E1E1E" stroke-width="6" stroke-linecap="round" stroke-linejoin="round"/>
</svg>
