<svg width="74" height="74" viewBox="0 0 74 74" fill="none" xmlns="http://www.w3.org/2000/svg">
<path d="M36.9998 21.5833C36.9998 18.3123 35.7004 15.1753 33.3875 12.8623C31.0745 10.5494 27.9375 9.25 24.6665 9.25H6.1665V55.5H27.7498C30.2031 55.5 32.5559 56.4745 34.2906 58.2093C36.0253 59.944 36.9998 62.2967 36.9998 64.75M36.9998 21.5833V64.75M36.9998 21.5833C36.9998 18.3123 38.2992 15.1753 40.6122 12.8623C42.9251 10.5494 46.0622 9.25 49.3332 9.25H67.8332V55.5H46.2498C43.7966 55.5 41.4438 56.4745 39.7091 58.2093C37.9744 59.944 36.9998 62.2967 36.9998 64.75" stroke="#1E1E1E" stroke-width="6" stroke-linecap="round" stroke-linejoin="round"/>
</svg>
