<svg width="73" height="73" viewBox="0 0 73 73" fill="none" xmlns="http://www.w3.org/2000/svg">
<path fill-rule="evenodd" clip-rule="evenodd" d="M58.1663 39.347C58.2758 38.4345 58.3488 37.4855 58.3488 36.5C58.3488 35.5145 58.2758 34.5655 58.1298 33.653L64.2983 28.835C64.8458 28.397 64.9918 27.594 64.6633 26.9735L58.8233 16.863C58.4583 16.206 57.6918 15.987 57.0348 16.206L49.7713 19.126C48.2383 17.958 46.6323 17.009 44.8438 16.279L43.7488 8.54099C43.6393 7.81099 43.0188 7.29999 42.2888 7.29999H30.6088C29.8788 7.29999 29.2948 7.81099 29.1853 8.54099L28.0903 16.279C26.3018 17.009 24.6593 17.9945 23.1628 19.126L15.8993 16.206C15.2423 15.9505 14.4758 16.206 14.1108 16.863L8.27077 26.9735C7.90577 27.6305 8.05177 28.397 8.63577 28.835L14.8043 33.653C14.6583 34.5655 14.5488 35.551 14.5488 36.5C14.5488 37.449 14.6218 38.4345 14.7678 39.347L8.59927 44.165C8.05177 44.603 7.90577 45.406 8.23427 46.0265L14.0743 56.137C14.4393 56.794 15.2058 57.013 15.8628 56.794L23.1263 53.874C24.6593 55.042 26.2653 55.991 28.0538 56.721L29.1488 64.459C29.2948 65.189 29.8788 65.7 30.6088 65.7H42.2888C43.0188 65.7 43.6393 65.189 43.7123 64.459L44.8073 56.721C46.5958 55.991 48.2383 55.0055 49.7348 53.874L56.9983 56.794C57.6553 57.0495 58.4218 56.794 58.7868 56.137L64.6268 46.0265C64.9918 45.3695 64.8458 44.603 64.2618 44.165L58.1663 39.347ZM36.4488 47.45C30.4263 47.45 25.4988 42.5225 25.4988 36.5C25.4988 30.4775 30.4263 25.55 36.4488 25.55C42.4713 25.55 47.3988 30.4775 47.3988 36.5C47.3988 42.5225 42.4713 47.45 36.4488 47.45Z" fill="#020202"/>
</svg>
